<?xml version="1.0" encoding="UTF-8" standalone="no"?>
<svg
   width="512"
   height="512"
   version="1.1"
   id="svg7"
   sodipodi:docname="cp.svg"
   inkscape:version="1.3.2 (091e20e, 2023-11-25, custom)"
   xmlns:inkscape="http://www.inkscape.org/namespaces/inkscape"
   xmlns:sodipodi="http://sodipodi.sourceforge.net/DTD/sodipodi-0.dtd"
   xmlns="http://www.w3.org/2000/svg"
   xmlns:svg="http://www.w3.org/2000/svg">
  <defs
     id="defs7" />
  <sodipodi:namedview
     id="namedview7"
     pagecolor="#ffffff"
     bordercolor="#000000"
     borderopacity="0.25"
     inkscape:showpageshadow="2"
     inkscape:pageopacity="0.0"
     inkscape:pagecheckerboard="0"
     inkscape:deskcolor="#d1d1d1"
     inkscape:zoom="1.15625"
     inkscape:cx="255.56757"
     inkscape:cy="256"
     inkscape:window-width="1440"
     inkscape:window-height="830"
     inkscape:window-x="-6"
     inkscape:window-y="-6"
     inkscape:window-maximized="1"
     inkscape:current-layer="svg7" />
  <path
     style="fill:#ffffff; stroke:none;"
     d="M0 0L0 241L1 241C1.00316 212.35 9.94216 183.098 21.1505 157C92.3562 -8.80188 330.948 -45.9976 449.282 90C465.937 109.141 480.407 130.602 490.421 154C501.757 180.487 510.997 209.913 511 239L512 239L512 0L0 0z"
     id="path1" />
  <path
     style="fill:#a05a2c;stroke:none"
     d="M248 6.42438C223.359 9.65979 198.909 11.5954 175 19.0255C112.58 38.4231 60.3914 81.5346 29.3086 139C15.9876 163.628 6.7368 191.259 2.8696 219C-1.78637 252.399 -0.717515 286.244 7.88426 319C39.6437 439.941 158.495 518.959 282 502.718C312.276 498.737 341.083 492.508 369 479.691C436.984 448.479 488.63 384.935 505.349 312C536.061 178.02 450.516 38.5082 314 11.1998C292.951 6.98926 269.455 3.60733 248 6.42438z"
     id="path2" />
  <path
     style="fill:#d38d5f;stroke:none"
     d="M234 9.42438C175.495 17.1061 123.146 34.9663 79 76.0895C57.4311 96.1814 39.8875 120.667 26.7531 147C-42.6549 286.156 38.3058 458.951 189 496.625C219.149 504.162 250.254 505.761 281 501.718C398.28 486.297 490.784 385.201 495.961 267C501.188 147.629 415.202 37.6447 298 14.1998C277.586 10.1163 254.812 6.69174 234 9.42438z"
     id="path3" />
  <path
     style="fill:#deaa87;stroke:none"
     d="M233 43.4244C186.961 49.4693 144.551 62.9919 108.424 93.7137C89.0292 110.208 73.4745 130.887 61.1397 153C13.0868 239.146 32.9118 355.07 108.424 419.286C153.603 457.706 215.29 475.759 274 468.715C306.248 464.845 337.654 453.912 365 436.308C468.008 369.993 494.501 219.586 416.951 123.196C389.682 89.3032 352.445 64.7217 311 51.9753C286.816 44.5376 258.285 40.1044 233 43.4244z"
     id="path4" />
  <path
     style="fill:#b05b23;stroke:none;fill-opacity:0.90212768"
     d="M 240,51.4244 C 196.761,57.1044 156.845,69.5705 122.424,97.7199 102.008,114.417 84.3769,135.815 71.7693,159 56.6162,186.866 47.4306,218.228 46.0394,250 40.4401,377.869 161.627,478.207 285,460.715 c 28.508,-4.042 55.537,-14.98 80,-29.919 C 384.527,418.872 401.676,402.925 415.789,385 461.51542,326.92376 470.57052,248.60877 445.77729,182.45465 432.46468,146.9335 409.39324,114.91846 377,91.4252 357.37898,77.195022 335.327,65.9883 312,59.2909 289.481,52.8256 263.446,48.3445 240,51.4244 Z"
     id="path5"
     sodipodi:nodetypes="ccccsccsscc" />
  <path
     style="fill:#d38d5f;stroke:none"
     d="M203 236C196.279 230.908 185.071 229.61 177 227.291C158.162 221.878 136.598 211.854 117 211L133.753 246L164.258 307L179 337L284 337L311 337C314.285 337 319.515 337.96 322.363 335.972C330.389 330.369 335.876 310.743 340.247 302C354.799 272.897 371.497 244.032 384 214C375.063 212.563 363.536 218.333 355 220.975C336.181 226.799 316.446 230.123 298 237L285.306 211L252 153C244.899 155.215 240.944 166.866 237.427 173C226.28 192.445 209.319 214.518 203 236z"
     id="path6" />
  <path
     style="fill:#ffffff; stroke:none;"
     d="M511 270C510.997 298.65 502.058 327.902 490.85 354C419.644 519.802 181.051 556.997 62.7184 421C46.0633 401.859 31.5928 380.398 21.5787 357C10.2429 330.513 1.00321 301.087 1 272L0 272L0 512L512 512L512 341L512 292L511 270z"
     id="path7" />
</svg>
