<?xml version="1.0" encoding="UTF-8" standalone="no"?>
<svg
   width="512"
   height="512"
   version="1.1"
   id="svg7"
   xmlns="http://www.w3.org/2000/svg"
   xmlns:svg="http://www.w3.org/2000/svg">
  <defs
     id="defs7" />
  <path
     style="fill:#a05a2c;stroke:none"
     d="M 248,6.42438 C 223.359,9.65979 198.909,11.5954 175,19.0255 112.58,38.4231 60.3914,81.5346 29.3086,139 15.9876,163.628 6.7368,191.259 2.8696,219 -1.78637,252.399 -0.717515,286.244 7.88426,319 39.6437,439.941 158.495,518.959 282,502.718 c 30.276,-3.981 59.083,-10.21 87,-23.027 C 436.984,448.479 488.63,384.935 505.349,312 536.061,178.02 450.516,38.5082 314,11.1998 292.951,6.98926 269.455,3.60733 248,6.42438 Z"
     id="path2" />
  <path
     style="fill:#d38d5f;stroke:none"
     d="M 234,9.42438 C 175.495,17.1061 123.146,34.9663 79,76.0895 57.4311,96.1814 39.8875,120.667 26.7531,147 -42.6549,286.156 38.3058,458.951 189,496.625 c 30.149,7.537 61.254,9.136 92,5.093 C 398.28,486.297 490.784,385.201 495.961,267 501.188,147.629 415.202,37.6447 298,14.1998 277.586,10.1163 254.812,6.69174 234,9.42438 Z"
     id="path3" />
  <path
     style="fill:#deaa87;stroke:none"
     d="M 233,43.4244 C 186.961,49.4693 144.551,62.9919 108.424,93.7137 89.0292,110.208 73.4745,130.887 61.1397,153 13.0868,239.146 32.9118,355.07 108.424,419.286 c 45.179,38.42 106.866,56.473 165.576,49.429 32.248,-3.87 63.654,-14.803 91,-32.407 C 468.008,369.993 494.501,219.586 416.951,123.196 389.682,89.3032 352.445,64.7217 311,51.9753 286.816,44.5376 258.285,40.1044 233,43.4244 Z"
     id="path4" />
  <path
     style="fill:#b05b23;fill-opacity:0.902128;stroke:none"
     d="M 240,51.4244 C 196.761,57.1044 156.845,69.5705 122.424,97.7199 102.008,114.417 84.3769,135.815 71.7693,159 56.6162,186.866 47.4306,218.228 46.0394,250 40.4401,377.869 161.627,478.207 285,460.715 c 28.508,-4.042 55.537,-14.98 80,-29.919 C 384.527,418.872 401.676,402.925 415.789,385 461.51542,326.92376 470.57052,248.60877 445.77729,182.45465 432.46468,146.9335 409.39324,114.91846 377,91.4252 357.37898,77.195022 335.327,65.9883 312,59.2909 289.481,52.8256 263.446,48.3445 240,51.4244 Z"
     id="path5" />
  <path
     style="fill:#d38d5f;stroke:none"
     d="m 203,236 c -6.721,-5.092 -17.929,-6.39 -26,-8.709 C 158.162,221.878 136.598,211.854 117,211 l 16.753,35 30.505,61 14.742,30 h 105 27 c 3.285,0 8.515,0.96 11.363,-1.028 8.026,-5.603 13.513,-25.229 17.884,-33.972 14.552,-29.103 31.25,-57.968 43.753,-88 -8.937,-1.437 -20.464,4.333 -29,6.975 -18.819,5.824 -38.554,9.148 -57,16.025 L 285.306,211 252,153 c -7.101,2.215 -11.056,13.866 -14.573,20 -11.147,19.445 -28.108,41.518 -34.427,63 z"
     id="path6" />
</svg>
